<svg clip-rule="evenodd" fill-rule="evenodd" stroke-linejoin="round" stroke-miterlimit="2" viewBox="0 0 256 146" xmlns="http://www.w3.org/2000/svg"><g fill-rule="nonzero"><path d="m113.06 36.504 28.346 76.149h28.346l-28.346-76.149z" fill="#3ea6de"/><path d="m196.393 15.014c0-8.171 6.475-15.109 15.879-15.109 9.405 0 15.88 6.938 15.88 15.109 0 8.17-6.475 15.262-15.88 15.262s-15.879-7.092-15.879-15.262z" fill="#e02146"/><path d="m226.445 36.504v76.149h.001l28.346-76.149z" fill="#97c6dd"/><path d="m226.445 36.504h-28.346v76.149l28.346-76.148z" fill="#e02146"/><path d="m198.099 112.653h28.346v-76.148z" fill="#6a2e4a"/><path d="m113.06 36.504-.001.001v76.148h.001l28.346-76.149z" fill="#97c6dd"/><path d="m113.059 36.504h-28.347v76.149h.002l28.345-76.148z" fill="#e02146"/><path d="m84.714 112.653h28.345v-76.148z" fill="#6a2e4a"/><g fill="#e02146"><path d="m28.02 112.653c-2.545 6.839-6.157 8.634-12.17 8.634-3.854 0-6.923-.616-9.83-1.542l-.48 20.352c3.982 1.079 9.06 1.541 13.529 1.541 19.735 0 29.058-6.84 35.009-22.83l2.289-6.154h-28.347z"/><path d="m113.06 36.504 28.346 76.149h28.346l-28.346-76.149z"/><path d="m83.007 15.014c0-8.171 6.475-15.109 15.879-15.109s15.879 6.938 15.879 15.109c0 8.17-6.475 15.262-15.879 15.262s-15.879-7.092-15.879-15.262z"/></g><path d="m169.752 36.504-14.173 38.079 14.173 38.07h.001l28.347-76.149z" fill="#6a2e4a"/><path d="m56.366 36.504-14.172 38.079 14.172 38.07 28.348-76.149z" fill="#6a2e4a"/><path d="m-.327 36.504 28.347 76.149h28.346l-28.345-76.149h-28.348z" fill="#e02146"/><path d="m28.021 36.504h-28.348l14.173 38.081z" fill="#6a2e4a"/><path d="m141.406 36.504h-28.346l14.172 38.081z" fill="#ba3353"/><path d="m141.406 112.655h28.347v-.001l-14.174-38.069-14.173 38.069z" fill="#ba3353"/><path d="m28.02 112.655h28.346v-.001l-14.172-38.069-14.174 38.069z" fill="#ba3353"/></g></svg>