<svg clip-rule="evenodd" fill-rule="evenodd" stroke-linejoin="round" stroke-miterlimit="2" viewBox="0 0 795 156" xmlns="http://www.w3.org/2000/svg"><g fill-rule="nonzero"><path d="m311.656 46.548-28.403 76.489h-28.404l28.404-76.489z" fill="#fff"/><path d="m283.253 46.548-28.404 76.489h-28.404l28.404-76.489z" fill="#fff"/><path d="m340.039 46.548-28.383 76.489h-28.403l28.403-76.489z" fill="#e7bdda"/><path d="m368.442 46.548-28.403 76.489h-28.383l28.383-76.489z" fill="#96714c"/><path d="m396.836 46.548-28.394 76.489h-28.403l28.403-76.489z" fill="#fff"/><path d="m425.239 46.548-28.403 76.489h-28.394l28.394-76.489z" fill="#80b776"/><path d="m453.633 46.548-28.394 76.489h-28.403l28.403-76.489z" fill="#fff"/><path d="m567.216 46.548-28.404 76.489h-28.393l28.393-76.489z" fill="#fff"/><path d="m482.036 46.548-28.392 76.489h-28.405l28.405-76.489z" fill="#4faae0"/><path d="m510.44 46.548-28.404 76.489h-28.392l28.392-76.489z" fill="#fff"/><path d="m538.822 46.548-28.382 76.489h-28.404l28.404-76.489z" fill="#f6a500"/><path d="m567.216 46.548-28.394 76.489h-28.382l28.382-76.489z" fill="#ac95b6"/><path d="m595.62 46.548-28.404 76.489h-28.394l28.394-76.489z" fill="#fff"/><path d="m624.013 46.548-28.393 76.489h-28.404l28.404-76.489z" fill="#e3032e"/><path d="m652.417 46.548-28.404 76.489h-28.393l28.393-76.489z" fill="#fff"/><path d="m680.82 46.548-28.403 76.489h-28.394l28.394-76.489z" fill="#d6b86b"/><path d="m709.213 46.548-28.403 76.489h-28.393l28.393-76.489z" fill="#fff"/><path d="m737.613 46.548-28.406 76.489h-28.394l28.394-76.489z" fill="#fff"/><path d="m766.011 46.548-28.405 76.489h-28.393l28.393-76.489z" fill="#49bbc3"/><path d="m794.408 46.548-28.401 76.489h-28.394l28.394-76.489z" fill="#d2d700"/><path d="m91.184 150.48h-1.739v-13.443h-4.734v-1.548h11.207v1.548h-4.734z"/><path d="m105.579 150.48v-7.27c0-.916-.208-1.6-.623-2.051-.416-.451-1.067-.678-1.953-.678-1.18 0-2.04.322-2.582.965s-.812 1.695-.812 3.158v5.875h-1.697v-15.955h1.697v4.83c0 .581-.027 1.062-.082 1.445h.103c.334-.54.809-.966 1.426-1.276.617-.312 1.321-.467 2.111-.467 1.37 0 2.398.326 3.083.979.686.652 1.027 1.69 1.027 3.111v7.332h-1.698z"/><path d="m115.497 150.686c-1.656 0-2.963-.506-3.921-1.518s-1.437-2.416-1.437-4.215c0-1.811.445-3.25 1.334-4.316.89-1.066 2.084-1.6 3.584-1.6 1.404 0 2.516.463 3.333 1.39.818.926 1.228 2.147 1.228 3.665v1.077h-7.72c.034 1.319.366 2.321.997 3.005.63.684 1.519 1.025 2.663 1.025 1.207 0 2.399-.253 3.579-.76v1.518c-.601.261-1.168.446-1.703.56-.535.112-1.18.169-1.937.169zm-.46-10.223c-.899 0-1.617.294-2.152.881-.535.589-.851 1.402-.945 2.441h5.858c0-1.073-.238-1.896-.716-2.467-.477-.57-1.158-.855-2.045-.855z"/><path d="m128.206 135.489h1.738v14.991h-1.738z"/><path d="m141.416 148.973h-.092c-.784 1.143-1.956 1.713-3.518 1.713-1.465 0-2.605-.502-3.42-1.508-.814-1.004-1.222-2.433-1.222-4.285s.409-3.292 1.227-4.317 1.957-1.538 3.415-1.538c1.521 0 2.687.554 3.497 1.661h.133l-.071-.81-.041-.79v-4.573h1.697v15.955h-1.38zm-3.395.287c1.159 0 1.999-.315 2.521-.948.521-.632.782-1.652.782-3.061v-.358c0-1.593-.264-2.729-.792-3.41-.528-.68-1.372-1.02-2.531-1.02-.995 0-1.757.388-2.285 1.163-.528.776-.792 1.872-.792 3.286 0 1.436.263 2.52.787 3.251.525.732 1.295 1.097 2.31 1.097z"/><path d="m151.354 150.686c-1.656 0-2.963-.506-3.921-1.518s-1.437-2.416-1.437-4.215c0-1.811.445-3.25 1.334-4.316.89-1.066 2.084-1.6 3.584-1.6 1.404 0 2.516.463 3.333 1.39.818.926 1.228 2.147 1.228 3.665v1.077h-7.72c.034 1.319.366 2.321.997 3.005.63.684 1.519 1.025 2.663 1.025 1.207 0 2.399-.253 3.579-.76v1.518c-.601.261-1.168.446-1.703.56-.534.112-1.18.169-1.937.169zm-.459-10.223c-.899 0-1.617.294-2.152.881-.535.589-.851 1.402-.945 2.441h5.858c0-1.073-.238-1.896-.716-2.467-.477-.57-1.159-.855-2.045-.855z"/><path d="m166.037 150.48v-7.27c0-.916-.208-1.6-.623-2.051-.416-.451-1.067-.678-1.953-.678-1.173 0-2.031.318-2.577.954-.545.636-.817 1.686-.817 3.147v5.896h-1.697v-11.238h1.38l.276 1.538h.082c.348-.554.835-.982 1.462-1.287.627-.304 1.325-.456 2.096-.456 1.35 0 2.365.326 3.047.979.682.652 1.022 1.696 1.022 3.132v7.332h-1.698z"/><path d="m174.841 149.281c.3 0 .59-.022.869-.067.279-.044.501-.09.665-.138v1.302c-.185.089-.455.162-.813.221-.357.058-.68.087-.966.087-2.168 0-3.252-1.145-3.252-3.436v-6.686h-1.604v-.82l1.604-.707.716-2.399h.981v2.604h3.252v1.322h-3.252v6.614c0 .677.16 1.196.481 1.559s.76.544 1.319.544z"/><path d="m178.471 136.197c0-.391.096-.676.286-.856.191-.182.43-.272.716-.272.272 0 .508.093.706.277.197.185.296.469.296.852s-.099.668-.296.855c-.198.188-.434.282-.706.282-.286 0-.524-.094-.716-.282-.191-.188-.286-.473-.286-.856zm1.841 14.283h-1.697v-11.238h1.697z"/><path d="m187.529 149.281c.3 0 .59-.022.869-.067.279-.044.501-.09.665-.138v1.302c-.185.089-.455.162-.813.221-.357.058-.68.087-.966.087-2.168 0-3.252-1.145-3.252-3.436v-6.686h-1.604v-.82l1.604-.707.716-2.399h.981v2.604h3.252v1.322h-3.252v6.614c0 .677.16 1.196.481 1.559s.761.544 1.319.544z"/><path d="m189.523 139.242h1.82l2.453 6.408c.539 1.464.873 2.52 1.002 3.169h.082c.089-.349.274-.945.558-1.789.282-.845 1.208-3.44 2.776-7.788h1.819l-4.815 12.797c-.478 1.265-1.035 2.162-1.672 2.691-.638.53-1.42.795-2.347.795-.519 0-1.029-.059-1.533-.174v-1.364c.374.082.794.123 1.257.123 1.166 0 1.997-.656 2.495-1.969l.624-1.6z"/><path d="m220.596 150.48h-1.718l-3.016-10.039c-.144-.443-.304-1.004-.48-1.682-.178-.676-.27-1.083-.276-1.22-.15.902-.389 1.891-.716 2.964l-2.924 9.977h-1.718l-3.978-14.991h1.84l2.362 9.259c.327 1.3.565 2.476.716 3.527.184-1.25.456-2.474.817-3.67l2.68-9.116h1.84l2.812 9.198c.327 1.06.604 2.256.829 3.588.129-.97.374-2.152.735-3.547l2.352-9.239h1.841z"/><path d="m233.571 150.48-.338-1.6h-.082c-.559.704-1.116 1.181-1.672 1.431-.556.249-1.249.374-2.08.374-1.111 0-1.982-.287-2.612-.861-.631-.574-.946-1.391-.946-2.451 0-2.269 1.81-3.458 5.43-3.568l1.901-.061v-.697c0-.883-.188-1.533-.567-1.954-.378-.42-.983-.63-1.814-.63-.935 0-1.991.287-3.17.861l-.521-1.303c.552-.301 1.157-.536 1.814-.707.658-.171 1.317-.257 1.979-.257 1.336 0 2.326.298 2.971.892.645.596.966 1.549.966 2.861v7.67zm-3.835-1.199c1.057 0 1.887-.291 2.49-.872s.904-1.395.904-2.44v-1.016l-1.697.072c-1.35.048-2.322.258-2.919.631-.597.372-.895.952-.895 1.738 0 .615.186 1.083.558 1.404.372.322.891.483 1.559.483z"/><path d="m238.325 134.525h1.697v15.955h-1.697z"/><path d="m243.621 134.525h1.697v15.955h-1.697z"/><path d="m253.651 150.686c-1.656 0-2.963-.506-3.921-1.518s-1.437-2.416-1.437-4.215c0-1.811.445-3.25 1.334-4.316.89-1.066 2.084-1.6 3.584-1.6 1.404 0 2.516.463 3.333 1.39.818.926 1.228 2.147 1.228 3.665v1.077h-7.72c.034 1.319.366 2.321.997 3.005.63.684 1.519 1.025 2.663 1.025 1.207 0 2.399-.253 3.579-.76v1.518c-.601.261-1.168.446-1.703.56-.534.112-1.18.169-1.937.169zm-.46-10.223c-.899 0-1.617.294-2.152.881-.535.589-.851 1.402-.945 2.441h5.858c0-1.073-.238-1.896-.716-2.467-.476-.57-1.158-.855-2.045-.855z"/><path d="m264.285 149.281c.3 0 .59-.022.869-.067.279-.044.501-.09.665-.138v1.302c-.185.089-.455.162-.813.221-.357.058-.68.087-.966.087-2.168 0-3.252-1.145-3.252-3.436v-6.686h-1.604v-.82l1.604-.707.716-2.399h.981v2.604h3.252v1.322h-3.252v6.614c0 .677.16 1.196.481 1.559s.761.544 1.319.544z"/><path d="m113.06 46.888 28.346 76.149h28.346l-28.346-76.149z" fill="#3ea6de"/><path d="m196.393 25.398c0-8.171 6.475-15.109 15.879-15.109 9.405 0 15.88 6.938 15.88 15.109 0 8.17-6.475 15.262-15.88 15.262s-15.879-7.092-15.879-15.262z" fill="#e02146"/><path d="m226.445 46.888v76.149h.001l28.346-76.149z" fill="#97c6dd"/><path d="m226.445 46.888h-28.346v76.149l28.346-76.148z" fill="#e02146"/><path d="m198.099 123.037h28.346v-76.148z" fill="#6a2e4a"/><path d="m113.06 46.888-.001.001v76.148h.001l28.346-76.149z" fill="#97c6dd"/><path d="m113.059 46.888h-28.347v76.149h.002l28.345-76.148z" fill="#e02146"/><path d="m84.714 123.037h28.345v-76.148z" fill="#6a2e4a"/><g fill="#e02146"><path d="m28.02 123.037c-2.545 6.839-6.157 8.634-12.17 8.634-3.854 0-6.923-.616-9.83-1.542l-.48 20.352c3.982 1.079 9.06 1.541 13.529 1.541 19.735 0 29.058-6.84 35.009-22.83l2.289-6.154h-28.347z"/><path d="m113.06 46.888 28.346 76.149h28.346l-28.346-76.149z"/><path d="m83.007 25.398c0-8.171 6.475-15.109 15.879-15.109s15.879 6.938 15.879 15.109c0 8.17-6.475 15.262-15.879 15.262s-15.879-7.092-15.879-15.262z"/></g><path d="m169.752 46.888-14.173 38.079 14.173 38.07h.001l28.347-76.149z" fill="#6a2e4a"/><path d="m56.366 46.888-14.172 38.079 14.172 38.07 28.348-76.149z" fill="#6a2e4a"/><path d="m-.327 46.888 28.347 76.149h28.346l-28.345-76.149h-28.348z" fill="#e02146"/><path d="m28.021 46.888h-28.348l14.173 38.081z" fill="#6a2e4a"/><path d="m141.406 46.888h-28.346l14.172 38.081z" fill="#ba3353"/><path d="m141.406 123.039h28.347v-.001l-14.174-38.069-14.173 38.069z" fill="#ba3353"/><path d="m28.02 123.039h28.346v-.001l-14.172-38.069-14.174 38.069z" fill="#ba3353"/></g></svg>