<?xml version="1.0" encoding="UTF-8" standalone="no"?><!DOCTYPE svg PUBLIC "-//W3C//DTD SVG 1.1//EN" "http://www.w3.org/Graphics/SVG/1.1/DTD/svg11.dtd"><svg width="100%" height="100%" viewBox="0 0 795 146" version="1.1" xmlns="http://www.w3.org/2000/svg" xmlns:xlink="http://www.w3.org/1999/xlink" xml:space="preserve" xmlns:serif="http://www.serif.com/" style="fill-rule:evenodd;clip-rule:evenodd;stroke-linejoin:round;stroke-miterlimit:2;"><path d="M311.656,36.548l-28.403,76.489l-28.404,0l28.404,-76.489l28.403,0Z" style="fill:#fff;fill-rule:nonzero;"/><path d="M283.253,36.548l-28.404,76.489l-28.404,0l28.404,-76.489l28.404,0Z" style="fill:#fff;fill-rule:nonzero;"/><path d="M340.039,36.548l-28.383,76.489l-28.403,0l28.403,-76.489l28.383,0Z" style="fill:#e7bdda;fill-rule:nonzero;"/><path d="M368.442,36.548l-28.403,76.489l-28.383,0l28.383,-76.489l28.403,0Z" style="fill:#96714c;fill-rule:nonzero;"/><path d="M396.836,36.548l-28.394,76.489l-28.403,0l28.403,-76.489l28.394,0Z" style="fill:#fff;fill-rule:nonzero;"/><path d="M425.239,36.548l-28.403,76.489l-28.394,0l28.394,-76.489l28.403,0Z" style="fill:#80b776;fill-rule:nonzero;"/><path d="M453.633,36.548l-28.394,76.489l-28.403,0l28.403,-76.489l28.394,0Z" style="fill:#fff;fill-rule:nonzero;"/><path d="M567.216,36.548l-28.404,76.489l-28.393,0l28.393,-76.489l28.404,0Z" style="fill:#fff;fill-rule:nonzero;"/><path d="M482.036,36.548l-28.392,76.489l-28.405,0l28.405,-76.489l28.392,0Z" style="fill:#4faae0;fill-rule:nonzero;"/><path d="M510.44,36.548l-28.404,76.489l-28.392,0l28.392,-76.489l28.404,0Z" style="fill:#fff;fill-rule:nonzero;"/><path d="M538.822,36.548l-28.382,76.489l-28.404,0l28.404,-76.489l28.382,0Z" style="fill:#f6a500;fill-rule:nonzero;"/><path d="M567.216,36.548l-28.394,76.489l-28.382,0l28.382,-76.489l28.394,0Z" style="fill:#ac95b6;fill-rule:nonzero;"/><path d="M595.62,36.548l-28.404,76.489l-28.394,0l28.394,-76.489l28.404,0Z" style="fill:#fff;fill-rule:nonzero;"/><path d="M624.013,36.548l-28.393,76.489l-28.404,0l28.404,-76.489l28.393,0Z" style="fill:#e3032e;fill-rule:nonzero;"/><path d="M652.417,36.548l-28.404,76.489l-28.393,0l28.393,-76.489l28.404,0Z" style="fill:#fff;fill-rule:nonzero;"/><path d="M680.82,36.548l-28.403,76.489l-28.394,0l28.394,-76.489l28.403,0Z" style="fill:#d6b86b;fill-rule:nonzero;"/><path d="M709.213,36.548l-28.403,76.489l-28.393,0l28.393,-76.489l28.403,0Z" style="fill:#fff;fill-rule:nonzero;"/><path d="M737.613,36.548l-28.406,76.489l-28.394,0l28.394,-76.489l28.406,0Z" style="fill:#fff;fill-rule:nonzero;"/><path d="M766.011,36.548l-28.405,76.489l-28.393,0l28.393,-76.489l28.405,0Z" style="fill:#49bbc3;fill-rule:nonzero;"/><path d="M794.408,36.548l-28.401,76.489l-28.394,0l28.394,-76.489l28.401,0Z" style="fill:#d2d700;fill-rule:nonzero;"/><path d="M91.184,140.48l-1.739,0l0,-13.443l-4.734,0l0,-1.548l11.207,0l0,1.548l-4.734,0l0,13.443Z" style="fill-rule:nonzero;"/><path d="M105.579,140.48l0,-7.27c0,-0.916 -0.208,-1.6 -0.623,-2.051c-0.416,-0.451 -1.067,-0.678 -1.953,-0.678c-1.18,0 -2.04,0.322 -2.582,0.965c-0.542,0.643 -0.812,1.695 -0.812,3.158l0,5.875l-1.697,0l0,-15.955l1.697,0l0,4.83c0,0.581 -0.027,1.062 -0.082,1.445l0.103,0c0.334,-0.54 0.809,-0.966 1.426,-1.276c0.617,-0.312 1.321,-0.467 2.111,-0.467c1.37,0 2.398,0.326 3.083,0.979c0.686,0.652 1.027,1.69 1.027,3.111l0,7.332l-1.698,0l-0,0.002Z" style="fill-rule:nonzero;"/><path d="M115.497,140.686c-1.656,-0 -2.963,-0.506 -3.921,-1.518c-0.958,-1.012 -1.437,-2.416 -1.437,-4.215c0,-1.811 0.445,-3.25 1.334,-4.316c0.89,-1.066 2.084,-1.6 3.584,-1.6c1.404,0 2.516,0.463 3.333,1.39c0.818,0.926 1.228,2.147 1.228,3.665l0,1.077l-7.72,0c0.034,1.319 0.366,2.321 0.997,3.005c0.63,0.684 1.519,1.025 2.663,1.025c1.207,0 2.399,-0.253 3.579,-0.76l0,1.518c-0.601,0.261 -1.168,0.446 -1.703,0.56c-0.535,0.112 -1.18,0.169 -1.937,0.169Zm-0.46,-10.223c-0.899,-0 -1.617,0.294 -2.152,0.881c-0.535,0.589 -0.851,1.402 -0.945,2.441l5.858,-0c0,-1.073 -0.238,-1.896 -0.716,-2.467c-0.477,-0.57 -1.158,-0.855 -2.045,-0.855Z" style="fill-rule:nonzero;"/><rect x="128.206" y="125.489" width="1.738" height="14.991" style="fill-rule:nonzero;"/><path d="M141.416,138.973l-0.092,0c-0.784,1.143 -1.956,1.713 -3.518,1.713c-1.465,0 -2.605,-0.502 -3.42,-1.508c-0.814,-1.004 -1.222,-2.433 -1.222,-4.285c0,-1.852 0.409,-3.292 1.227,-4.317c0.818,-1.025 1.957,-1.538 3.415,-1.538c1.521,0 2.687,0.554 3.497,1.661l0.133,0l-0.071,-0.81l-0.041,-0.79l0,-4.573l1.697,0l0,15.955l-1.38,0l-0.225,-1.508Zm-3.395,0.287c1.159,0 1.999,-0.315 2.521,-0.948c0.521,-0.632 0.782,-1.652 0.782,-3.061l0,-0.358c0,-1.593 -0.264,-2.729 -0.792,-3.41c-0.528,-0.68 -1.372,-1.02 -2.531,-1.02c-0.995,0 -1.757,0.388 -2.285,1.163c-0.528,0.776 -0.792,1.872 -0.792,3.286c0,1.436 0.263,2.52 0.787,3.251c0.525,0.732 1.295,1.097 2.31,1.097Z" style="fill-rule:nonzero;"/><path d="M151.354,140.686c-1.656,-0 -2.963,-0.506 -3.921,-1.518c-0.958,-1.012 -1.437,-2.416 -1.437,-4.215c-0,-1.811 0.445,-3.25 1.334,-4.316c0.89,-1.066 2.084,-1.6 3.584,-1.6c1.404,0 2.516,0.463 3.333,1.39c0.818,0.926 1.228,2.147 1.228,3.665l0,1.077l-7.72,0c0.034,1.319 0.366,2.321 0.997,3.005c0.63,0.684 1.519,1.025 2.663,1.025c1.207,0 2.399,-0.253 3.579,-0.76l-0,1.518c-0.601,0.261 -1.168,0.446 -1.703,0.56c-0.534,0.112 -1.18,0.169 -1.937,0.169Zm-0.459,-10.223c-0.899,-0 -1.617,0.294 -2.152,0.881c-0.535,0.589 -0.851,1.402 -0.945,2.441l5.858,-0c-0,-1.073 -0.238,-1.896 -0.716,-2.467c-0.477,-0.57 -1.159,-0.855 -2.045,-0.855Z" style="fill-rule:nonzero;"/><path d="M166.037,140.48l-0,-7.27c-0,-0.916 -0.208,-1.6 -0.623,-2.051c-0.416,-0.451 -1.067,-0.678 -1.953,-0.678c-1.173,0 -2.031,0.318 -2.577,0.954c-0.545,0.636 -0.817,1.686 -0.817,3.147l0,5.896l-1.697,0l0,-11.238l1.38,0l0.276,1.538l0.082,0c0.348,-0.554 0.835,-0.982 1.462,-1.287c0.627,-0.304 1.325,-0.456 2.096,-0.456c1.35,0 2.365,0.326 3.047,0.979c0.682,0.652 1.022,1.696 1.022,3.132l0,7.332l-1.698,0l0,0.002Z" style="fill-rule:nonzero;"/><path d="M174.841,139.281c0.3,0 0.59,-0.022 0.869,-0.067c0.279,-0.044 0.501,-0.09 0.665,-0.138l0,1.302c-0.185,0.089 -0.455,0.162 -0.813,0.221c-0.357,0.058 -0.68,0.087 -0.966,0.087c-2.168,0 -3.252,-1.145 -3.252,-3.436l0,-6.686l-1.604,0l0,-0.82l1.604,-0.707l0.716,-2.399l0.981,0l0,2.604l3.252,0l0,1.322l-3.252,0l0,6.614c0,0.677 0.16,1.196 0.481,1.559c0.321,0.363 0.76,0.544 1.319,0.544Z" style="fill-rule:nonzero;"/><path d="M178.471,126.197c0,-0.391 0.096,-0.676 0.286,-0.856c0.191,-0.182 0.43,-0.272 0.716,-0.272c0.272,0 0.508,0.093 0.706,0.277c0.197,0.185 0.296,0.469 0.296,0.852c0,0.383 -0.099,0.668 -0.296,0.855c-0.198,0.188 -0.434,0.282 -0.706,0.282c-0.286,-0 -0.524,-0.094 -0.716,-0.282c-0.191,-0.188 -0.286,-0.473 -0.286,-0.856Zm1.841,14.283l-1.697,0l0,-11.238l1.697,0l0,11.238Z" style="fill-rule:nonzero;"/><path d="M187.529,139.281c0.3,0 0.59,-0.022 0.869,-0.067c0.279,-0.044 0.501,-0.09 0.665,-0.138l0,1.302c-0.185,0.089 -0.455,0.162 -0.813,0.221c-0.357,0.058 -0.68,0.087 -0.966,0.087c-2.168,0 -3.252,-1.145 -3.252,-3.436l0,-6.686l-1.604,0l0,-0.82l1.604,-0.707l0.716,-2.399l0.981,0l0,2.604l3.252,0l0,1.322l-3.252,0l0,6.614c0,0.677 0.16,1.196 0.481,1.559c0.321,0.363 0.761,0.544 1.319,0.544Z" style="fill-rule:nonzero;"/><path d="M189.523,129.242l1.82,0l2.453,6.408c0.539,1.464 0.873,2.52 1.002,3.169l0.082,0c0.089,-0.349 0.274,-0.945 0.558,-1.789c0.282,-0.845 1.208,-3.44 2.776,-7.788l1.819,0l-4.815,12.797c-0.478,1.265 -1.035,2.162 -1.672,2.691c-0.638,0.53 -1.42,0.795 -2.347,0.795c-0.519,0 -1.029,-0.059 -1.533,-0.174l0,-1.364c0.374,0.082 0.794,0.123 1.257,0.123c1.166,0 1.997,-0.656 2.495,-1.969l0.624,-1.6l-4.519,-11.299Z" style="fill-rule:nonzero;"/><path d="M220.596,140.48l-1.718,0l-3.016,-10.039c-0.144,-0.443 -0.304,-1.004 -0.48,-1.682c-0.178,-0.676 -0.27,-1.083 -0.276,-1.22c-0.15,0.902 -0.389,1.891 -0.716,2.964l-2.924,9.977l-1.718,-0l-3.978,-14.991l1.84,-0l2.362,9.259c0.327,1.3 0.565,2.476 0.716,3.527c0.184,-1.25 0.456,-2.474 0.817,-3.67l2.68,-9.116l1.84,-0l2.812,9.198c0.327,1.06 0.604,2.256 0.829,3.588c0.129,-0.97 0.374,-2.152 0.735,-3.547l2.352,-9.239l1.841,-0l-3.998,14.991Z" style="fill-rule:nonzero;"/><path d="M233.571,140.48l-0.338,-1.6l-0.082,0c-0.559,0.704 -1.116,1.181 -1.672,1.431c-0.556,0.249 -1.249,0.374 -2.08,0.374c-1.111,0 -1.982,-0.287 -2.612,-0.861c-0.631,-0.574 -0.946,-1.391 -0.946,-2.451c-0,-2.269 1.81,-3.458 5.43,-3.568l1.901,-0.061l-0,-0.697c-0,-0.883 -0.188,-1.533 -0.567,-1.954c-0.378,-0.42 -0.983,-0.63 -1.814,-0.63c-0.935,0 -1.991,0.287 -3.17,0.861l-0.521,-1.303c0.552,-0.301 1.157,-0.536 1.814,-0.707c0.658,-0.171 1.317,-0.257 1.979,-0.257c1.336,0 2.326,0.298 2.971,0.892c0.645,0.596 0.966,1.549 0.966,2.861l-0,7.67l-1.259,0Zm-3.835,-1.199c1.057,0 1.887,-0.291 2.49,-0.872c0.603,-0.581 0.904,-1.395 0.904,-2.44l-0,-1.016l-1.697,0.072c-1.35,0.048 -2.322,0.258 -2.919,0.631c-0.597,0.372 -0.895,0.952 -0.895,1.738c0,0.615 0.186,1.083 0.558,1.404c0.372,0.322 0.891,0.483 1.559,0.483Z" style="fill-rule:nonzero;"/><rect x="238.325" y="124.525" width="1.697" height="15.955" style="fill-rule:nonzero;"/><rect x="243.621" y="124.525" width="1.697" height="15.955" style="fill-rule:nonzero;"/><path d="M253.651,140.686c-1.656,-0 -2.963,-0.506 -3.921,-1.518c-0.958,-1.012 -1.437,-2.416 -1.437,-4.215c0,-1.811 0.445,-3.25 1.334,-4.316c0.89,-1.066 2.084,-1.6 3.584,-1.6c1.404,0 2.516,0.463 3.333,1.39c0.818,0.926 1.228,2.147 1.228,3.665l0,1.077l-7.72,0c0.034,1.319 0.366,2.321 0.997,3.005c0.63,0.684 1.519,1.025 2.663,1.025c1.207,0 2.399,-0.253 3.579,-0.76l0,1.518c-0.601,0.261 -1.168,0.446 -1.703,0.56c-0.534,0.112 -1.18,0.169 -1.937,0.169Zm-0.46,-10.223c-0.899,-0 -1.617,0.294 -2.152,0.881c-0.535,0.589 -0.851,1.402 -0.945,2.441l5.858,-0c0,-1.073 -0.238,-1.896 -0.716,-2.467c-0.476,-0.57 -1.158,-0.855 -2.045,-0.855Z" style="fill-rule:nonzero;"/><path d="M264.285,139.281c0.3,0 0.59,-0.022 0.869,-0.067c0.279,-0.044 0.501,-0.09 0.665,-0.138l0,1.302c-0.185,0.089 -0.455,0.162 -0.813,0.221c-0.357,0.058 -0.68,0.087 -0.966,0.087c-2.168,0 -3.252,-1.145 -3.252,-3.436l0,-6.686l-1.604,0l0,-0.82l1.604,-0.707l0.716,-2.399l0.981,0l0,2.604l3.252,0l0,1.322l-3.252,0l0,6.614c0,0.677 0.16,1.196 0.481,1.559c0.321,0.363 0.761,0.544 1.319,0.544Z" style="fill-rule:nonzero;"/><path d="M113.06,36.888l28.346,76.149l28.346,-0l-28.346,-76.149l-28.346,-0Z" style="fill:#3ea6de;fill-rule:nonzero;"/><path d="M196.393,15.398c-0,-8.171 6.475,-15.109 15.879,-15.109c9.405,0 15.88,6.938 15.88,15.109c0,8.17 -6.475,15.262 -15.88,15.262c-9.405,0 -15.879,-7.092 -15.879,-15.262Z" style="fill:#e02146;fill-rule:nonzero;"/><path d="M226.445,36.888l0,76.149l0.001,-0l28.346,-76.149l-28.347,-0Z" style="fill:#97c6dd;fill-rule:nonzero;"/><path d="M226.445,36.888l-28.346,-0l0,76.149l28.346,-76.148l0,-0.001Z" style="fill:#e02146;fill-rule:nonzero;"/><path d="M198.099,113.037l28.346,-0l-0,-76.148l-28.346,76.148Z" style="fill:#6a2e4a;fill-rule:nonzero;"/><path d="M113.06,36.888l-0.001,0.001l0,76.148l0.001,-0l28.346,-76.149l-28.346,-0Z" style="fill:#97c6dd;fill-rule:nonzero;"/><path d="M113.059,36.888l-28.347,-0l0,76.149l0.002,-0l28.345,-76.148l0,-0.001Z" style="fill:#e02146;fill-rule:nonzero;"/><path d="M84.714,113.037l28.345,-0l-0,-76.148l-28.345,76.148Z" style="fill:#6a2e4a;fill-rule:nonzero;"/><g><path d="M28.02,113.037c-2.545,6.839 -6.157,8.634 -12.17,8.634c-3.854,-0 -6.923,-0.616 -9.83,-1.542l-0.48,20.352c3.982,1.079 9.06,1.541 13.529,1.541c19.735,0 29.058,-6.84 35.009,-22.83l2.289,-6.154l-28.347,0l0,-0.001Z" style="fill:#e02146;fill-rule:nonzero;"/><path d="M113.06,36.888l28.346,76.149l28.346,-0l-28.346,-76.149l-28.346,-0Z" style="fill:#e02146;fill-rule:nonzero;"/><path d="M83.007,15.398c0,-8.171 6.475,-15.109 15.879,-15.109c9.404,0 15.879,6.938 15.879,15.109c0,8.17 -6.475,15.262 -15.879,15.262c-9.404,0 -15.879,-7.092 -15.879,-15.262Z" style="fill:#e02146;fill-rule:nonzero;"/></g><path d="M169.752,36.888l-14.173,38.079l14.173,38.07l0.001,-0l28.347,-76.149l-28.348,-0Z" style="fill:#6a2e4a;fill-rule:nonzero;"/><path d="M56.366,36.888l-14.172,38.079l14.172,38.07l28.348,-76.149l-28.348,-0Z" style="fill:#6a2e4a;fill-rule:nonzero;"/><path d="M-0.327,36.888l28.347,76.149l28.346,-0l-28.345,-76.149l-28.348,-0Z" style="fill:#e02146;fill-rule:nonzero;"/><path d="M28.021,36.888l-28.348,-0l14.173,38.081l14.175,-38.081Z" style="fill:#6a2e4a;fill-rule:nonzero;"/><path d="M141.406,36.888l-28.346,-0l14.172,38.081l14.174,-38.081Z" style="fill:#ba3353;fill-rule:nonzero;"/><path d="M141.406,113.039l28.347,-0l-0,-0.001l-14.174,-38.069l-14.173,38.069l0,0.001Z" style="fill:#ba3353;fill-rule:nonzero;"/><path d="M28.02,113.039l28.346,-0l0,-0.001l-14.172,-38.069l-14.174,38.069l0,0.001Z" style="fill:#ba3353;fill-rule:nonzero;"/></svg>