<svg clip-rule="evenodd" fill-rule="evenodd" stroke-linejoin="round" stroke-miterlimit="2" viewBox="0 0 256 143" xmlns="http://www.w3.org/2000/svg"><g fill-rule="nonzero"><path d="m113.255 37.231 28.48 76.51h28.481l-28.481-76.51z" fill="#3ea6de"/><path d="m196.982 15.639c0-8.209 6.506-15.18 15.954-15.18 9.449 0 15.955 6.971 15.955 15.18s-6.506 15.335-15.955 15.335c-9.448 0-15.954-7.126-15.954-15.335z" fill="#e02146"/><path d="m227.176 37.231v76.51h.001l28.481-76.51z" fill="#97c6dd"/><path d="m227.176 37.231h-28.48v76.51l28.48-76.509z" fill="#e02146"/><path d="m198.696 113.741h28.48v-76.509z" fill="#6a2e4a"/><path d="m113.255 37.231-.001.001v76.509h.001l28.481-76.51z" fill="#97c6dd"/><path d="m113.254 37.231h-28.48v76.51l28.48-76.509z" fill="#e02146"/><path d="m84.774 113.741h28.48v-76.509z" fill="#6a2e4a"/><g fill="#e02146"><path d="m27.813 113.741c-2.557 6.871-6.186 8.674-12.228 8.674-3.872 0-6.956-.619-9.876-1.549l-.483 20.447c4.001 1.084 9.102 1.549 13.594 1.549 19.827 0 29.194-6.873 35.173-22.938l2.301-6.183z"/><path d="m113.255 37.231 28.48 76.51h28.481l-28.481-76.51z"/><path d="m83.06 15.639c0-8.209 6.505-15.18 15.954-15.18s15.955 6.971 15.955 15.18-6.506 15.335-15.955 15.335-15.954-7.126-15.954-15.335z"/></g><path d="m170.216 37.231-14.241 38.26 14.241 38.25 28.481-76.51z" fill="#6a2e4a"/><path d="m56.293 37.231-14.24 38.26 14.241 38.25 28.48-76.51z" fill="#6a2e4a"/><path d="m-.668 37.231 28.481 76.51h28.481l-28.481-76.51h-28.481z" fill="#e02146"/><path d="m27.813 37.231v.001z" fill="#97c6dd"/><path d="m-.668 37.231v.001z" fill="#e02146"/><path d="m27.813 37.231h-28.481v.001l14.24 38.26 14.241-38.26z" fill="#6a2e4a"/><path d="m141.735 37.231h-28.48v.001l14.24 38.26 14.24-38.26z" fill="#ba3353"/><path d="m141.735 113.742h28.481l-14.241-38.25z" fill="#ba3353"/><path d="m27.813 113.742h28.481l-14.241-38.25z" fill="#ba3353"/></g></svg>